<svg width="985" height="984" viewBox="0 0 985 984" fill="none" xmlns="http://www.w3.org/2000/svg">
<mask id="path-1-inside-1_133_627" fill="white">
<path fill-rule="evenodd" clip-rule="evenodd" d="M450.344 495.515L426.48 536.751C426.39 536.907 426.302 537.063 426.217 537.219C412.629 540.918 402.641 553.319 402.641 568.047C402.641 585.694 416.98 600 434.669 600C447.614 600 458.765 592.339 463.815 581.314C468.865 592.339 480.016 600 492.961 600C505.383 600 516.154 592.945 521.466 582.631C526.778 592.945 537.549 600 549.972 600C567.66 600 582 585.694 582 568.047C582 553.319 572.011 540.918 558.424 537.219C558.338 537.063 558.251 536.907 558.161 536.751L534.296 495.515L558.161 454.278C558.292 454.051 558.418 453.823 558.54 453.594C571.74 449.648 581.359 437.436 581.359 422.982C581.359 405.335 567.02 391.03 549.331 391.03C538.144 391.03 528.296 396.752 522.569 405.422C518.206 392.949 506.311 384 492.32 384C477.831 384 465.589 393.599 461.634 406.77C456.063 397.35 445.786 391.03 434.028 391.03C416.34 391.03 402 405.335 402 422.982C402 437.979 412.357 450.563 426.324 454.004C426.375 454.096 426.427 454.187 426.48 454.278L450.344 495.515Z"/>
</mask>
<path d="M450.344 495.515L454.672 498.019L456.121 495.515L454.672 493.01L450.344 495.515ZM426.48 536.751L422.152 534.247L422.152 534.247L426.48 536.751ZM426.217 537.219L427.53 542.043L429.586 541.484L430.606 539.613L426.217 537.219ZM463.815 581.314L468.361 579.232L463.815 569.308L459.269 579.232L463.815 581.314ZM521.466 582.631L525.911 580.342L521.466 571.712L517.021 580.342L521.466 582.631ZM558.424 537.219L554.034 539.613L555.054 541.484L557.11 542.043L558.424 537.219ZM558.161 536.751L562.488 534.247L562.488 534.247L558.161 536.751ZM534.296 495.515L529.969 493.01L528.519 495.515L529.969 498.019L534.296 495.515ZM558.161 454.278L562.488 456.783L562.488 456.782L558.161 454.278ZM558.54 453.594L557.108 448.804L555.103 449.403L554.123 451.252L558.54 453.594ZM522.569 405.422L517.849 407.073L521.18 416.596L526.74 408.178L522.569 405.422ZM461.634 406.77L457.33 409.315L463.14 419.141L466.423 408.208L461.634 406.77ZM426.324 454.004L430.688 451.564L429.628 449.669L427.52 449.15L426.324 454.004ZM426.48 454.278L430.807 451.774L430.807 451.774L426.48 454.278ZM446.017 493.01L422.152 534.247L430.807 539.256L454.672 498.019L446.017 493.01ZM422.152 534.247C422.041 534.439 421.933 534.631 421.828 534.825L430.606 539.613C430.672 539.494 430.738 539.375 430.807 539.256L422.152 534.247ZM424.904 532.395C409.202 536.669 397.641 550.999 397.641 568.047H407.641C407.641 555.639 416.056 545.167 427.53 542.043L424.904 532.395ZM397.641 568.047C397.641 588.467 414.23 605 434.669 605V595C419.73 595 407.641 582.922 407.641 568.047H397.641ZM434.669 605C449.635 605 462.524 596.138 468.361 583.396L459.269 579.232C455.005 588.54 445.592 595 434.669 595V605ZM459.269 583.396C465.106 596.138 477.995 605 492.961 605V595C482.038 595 472.625 588.54 468.361 579.232L459.269 583.396ZM492.961 605C507.324 605 519.773 596.837 525.911 584.921L517.021 580.342C512.535 589.052 503.443 595 492.961 595V605ZM517.021 584.921C523.159 596.837 535.609 605 549.972 605V595C539.489 595 530.398 589.052 525.911 580.342L517.021 584.921ZM549.972 605C570.411 605 587 588.467 587 568.047H577C577 582.922 564.91 595 549.972 595V605ZM587 568.047C587 550.999 575.438 536.669 559.737 532.395L557.11 542.043C568.584 545.167 577 555.639 577 568.047H587ZM562.813 534.825C562.708 534.631 562.599 534.439 562.488 534.247L553.833 539.256C553.902 539.375 553.969 539.494 554.034 539.613L562.813 534.825ZM562.488 534.247L538.624 493.01L529.969 498.019L553.833 539.256L562.488 534.247ZM553.833 451.774L529.969 493.01L538.624 498.019L562.488 456.783L553.833 451.774ZM554.123 451.252C554.03 451.426 553.934 451.6 553.833 451.774L562.488 456.782C562.651 456.502 562.807 456.221 562.957 455.937L554.123 451.252ZM559.972 458.385C575.224 453.825 586.359 439.713 586.359 422.982H576.359C576.359 435.159 568.256 445.471 557.108 448.804L559.972 458.385ZM586.359 422.982C586.359 402.563 569.77 386.03 549.331 386.03V396.03C564.27 396.03 576.359 408.108 576.359 422.982H586.359ZM549.331 386.03C536.398 386.03 525.013 392.651 518.397 402.666L526.74 408.178C531.58 400.852 539.89 396.03 549.331 396.03V386.03ZM527.288 403.771C522.244 389.349 508.495 379 492.32 379V389C504.126 389 514.168 396.549 517.849 407.073L527.288 403.771ZM492.32 379C475.569 379 461.419 390.099 456.845 405.332L466.423 408.208C469.758 397.099 480.092 389 492.32 389V379ZM465.938 404.225C459.503 393.343 447.622 386.03 434.028 386.03V396.03C443.95 396.03 452.624 401.357 457.33 409.315L465.938 404.225ZM434.028 386.03C413.589 386.03 397 402.563 397 422.982H407C407 408.108 419.09 396.03 434.028 396.03V386.03ZM397 422.982C397 440.341 408.987 454.883 425.128 458.859L427.52 449.15C415.727 446.244 407 435.618 407 422.982H397ZM430.807 451.774C430.767 451.704 430.727 451.634 430.688 451.564L421.96 456.445C422.023 456.557 422.087 456.67 422.152 456.783L430.807 451.774ZM454.672 493.01L430.807 451.774L422.152 456.783L446.017 498.019L454.672 493.01Z" fill="#D9D9D9" mask="url(#path-1-inside-1_133_627)"/>
<g filter="url(#filter0_ddd_133_627)">
<ellipse cx="492.317" cy="491.999" rx="38.4342" ry="38.3432" fill="#D9D9D9"/>
</g>
<defs>
<filter id="filter0_ddd_133_627" x="0.282806" y="0.0562439" width="984.067" height="983.888" filterUnits="userSpaceOnUse" color-interpolation-filters="sRGB">
<feFlood flood-opacity="0" result="BackgroundImageFix"/>
<feColorMatrix in="SourceAlpha" type="matrix" values="0 0 0 0 0 0 0 0 0 0 0 0 0 0 0 0 0 0 127 0" result="hardAlpha"/>
<feOffset/>
<feGaussianBlur stdDeviation="10.8"/>
<feColorMatrix type="matrix" values="0 0 0 0 0.85098 0 0 0 0 0.85098 0 0 0 0 0.85098 0 0 0 1 0"/>
<feBlend mode="normal" in2="BackgroundImageFix" result="effect1_dropShadow_133_627"/>
<feColorMatrix in="SourceAlpha" type="matrix" values="0 0 0 0 0 0 0 0 0 0 0 0 0 0 0 0 0 0 127 0" result="hardAlpha"/>
<feOffset/>
<feGaussianBlur stdDeviation="129.6"/>
<feColorMatrix type="matrix" values="0 0 0 0 0.85098 0 0 0 0 0.85098 0 0 0 0 0.85098 0 0 0 1 0"/>
<feBlend mode="normal" in2="effect1_dropShadow_133_627" result="effect2_dropShadow_133_627"/>
<feColorMatrix in="SourceAlpha" type="matrix" values="0 0 0 0 0 0 0 0 0 0 0 0 0 0 0 0 0 0 127 0" result="hardAlpha"/>
<feOffset/>
<feGaussianBlur stdDeviation="226.8"/>
<feColorMatrix type="matrix" values="0 0 0 0 0.85098 0 0 0 0 0.85098 0 0 0 0 0.85098 0 0 0 1 0"/>
<feBlend mode="normal" in2="effect2_dropShadow_133_627" result="effect3_dropShadow_133_627"/>
<feBlend mode="normal" in="SourceGraphic" in2="effect3_dropShadow_133_627" result="shape"/>
</filter>
</defs>
</svg>
