<svg width="61" height="40" viewBox="0 0 61 40" fill="none" xmlns="http://www.w3.org/2000/svg">
<path d="M59.7252 6.24604C59.0237 3.78732 56.957 1.85119 54.3323 1.19409C49.5753 -0.000102997 30.5 -0.000106812 30.5 -0.000106812C30.5 -0.000106812 11.4248 -0.000102997 6.66768 1.19409C4.04319 1.85119 1.97611 3.78732 1.27467 6.24604C0 10.7023 0 19.9999 0 19.9999C0 19.9999 0 29.2975 1.27467 33.7541C1.97611 36.2126 4.04319 38.1487 6.66768 38.8061C11.4248 40 30.5 40 30.5 40C30.5 40 49.5753 40 54.3323 38.8061C56.957 38.1487 59.0237 36.2126 59.7252 33.7541C61 29.2975 61 19.9999 61 19.9999C61 19.9999 61 10.7023 59.7252 6.24604Z" fill="#ED1D24"/>
<path d="M24.2578 28.4414L40.201 20.0003L24.2578 11.5583V28.4414Z" fill="white"/>
</svg>
