<svg width="142" height="250" viewBox="0 0 142 250" fill="none" xmlns="http://www.w3.org/2000/svg">
<path fill-rule="evenodd" clip-rule="evenodd" d="M131.816 125C131.816 61.4872 80.329 10 16.8163 10V0C33.9415 0 50.884 3.51886 66.5928 10.3383C82.3016 17.1577 96.4416 27.1323 108.136 39.6431C119.83 52.154 128.828 66.9343 134.573 83.0671C140.318 99.1999 142.686 116.341 141.532 133.427C140.377 150.514 135.724 167.18 127.861 182.394C119.998 197.607 109.093 211.042 95.8223 221.866C82.5515 232.69 67.1982 240.672 50.7148 245.316C34.2314 249.96 16.9695 251.168 0 248.864L1.34348 238.968C6.40418 239.649 11.5692 240 16.8163 240C80.329 240 131.816 188.513 131.816 125Z" fill="#FFF5F2"/>
</svg>
