<svg width="142" height="250" viewBox="0 0 142 250" fill="none" xmlns="http://www.w3.org/2000/svg">
<path fill-rule="evenodd" clip-rule="evenodd" d="M9.9962 125C9.9962 188.513 61.4835 240 124.996 240V250C107.871 250 90.9285 246.481 75.2197 239.662C59.5109 232.842 45.3709 222.868 33.6769 210.357C21.9829 197.846 12.9844 183.066 7.23953 166.933C1.49467 150.8 -0.873947 133.659 0.280609 116.573C1.43515 99.4865 6.08826 82.8198 13.9512 67.6065C21.8142 52.3932 32.7194 38.9578 45.9902 28.1339C59.261 17.3099 74.6143 9.32834 91.0977 4.6842C107.581 0.0400674 124.843 -1.16753 141.812 1.13632L140.469 11.032C135.408 10.3514 130.243 10 124.996 10C61.4835 10 9.9962 61.4873 9.9962 125Z" fill="#FFF5F2"/>
</svg>
