<svg width="137" height="217" viewBox="0 0 137 217" fill="none" xmlns="http://www.w3.org/2000/svg">
<g filter="url(#filter0_d_133_830)">
<path fill-rule="evenodd" clip-rule="evenodd" d="M97.7895 91.4418C109.397 91.185 116.997 87.3757 116.997 69.2362C116.997 39.8347 97.0292 16 72.3975 16C47.7658 16 27.7978 39.8347 27.7978 69.2362C27.7978 85.0997 33.6107 90.0035 42.8326 91.1561C42.5245 92.8019 42.4191 94.3116 42.5088 95.4981C41.6243 96.7559 40.7491 98.7477 40.1283 101.093C38.9824 105.422 39.1377 109.316 40.4753 109.79C40.59 109.831 40.7096 109.845 40.8333 109.834C40.3097 110.927 39.8255 112.248 39.4397 113.706C38.2937 118.035 38.4491 121.929 39.7867 122.403C39.9029 122.445 40.0241 122.459 40.1495 122.447C39.624 123.542 39.1381 124.867 38.7511 126.329C38.3737 127.755 38.1374 129.133 38.038 130.358C37.5266 131.438 37.0541 132.734 36.6759 134.162C35.3383 133.692 33.3264 136.816 32.181 141.144L32.1809 141.144L32.1804 141.144C30.8427 140.67 28.8294 143.795 27.6834 148.124C27.0639 150.464 26.8247 152.677 26.947 154.292C26.0636 155.55 25.1897 157.54 24.5697 159.882C23.5356 163.788 23.5612 167.341 24.5589 168.345C24.0305 169.444 23.5418 170.774 23.1529 172.243C22.3696 175.202 22.1943 177.958 22.5889 179.557C21.9037 180.78 21.2565 182.409 20.7674 184.257C19.6214 188.586 19.7767 192.48 21.1144 192.954C22.452 193.428 24.4654 190.303 25.6113 185.974C26.3946 183.015 26.57 180.259 26.1753 178.659C26.8605 177.437 27.5077 175.808 27.9969 173.96C29.031 170.053 29.0054 166.501 28.0077 165.497C28.536 164.398 29.0248 163.068 29.4137 161.599C30.0332 159.258 30.2724 157.045 30.1501 155.431C31.0335 154.173 31.9074 152.183 32.5274 149.841L32.5275 149.841L32.528 149.841C33.8654 150.315 35.8782 147.191 37.0243 142.863C38.3619 143.333 40.3738 140.209 41.5192 135.882C41.8966 134.456 42.1328 133.078 42.2322 131.853C42.744 130.773 43.2168 129.475 43.595 128.046C44.741 123.717 44.5856 119.823 43.248 119.349C43.1318 119.308 43.0106 119.293 42.8852 119.305C43.4107 118.21 43.8966 116.885 44.2837 115.423C45.4296 111.094 45.2743 107.2 43.9367 106.726C43.822 106.685 43.7024 106.671 43.5788 106.682C44.1023 105.588 44.5865 104.267 44.9723 102.81C45.5917 100.47 45.8309 98.257 45.7088 96.6426C46.5416 95.4583 47.3663 93.6232 47.978 91.4552C51.3391 91.4746 55.0157 91.2312 58.9255 90.9723L58.9258 90.9723C59.4423 90.9381 59.9628 90.9036 60.4871 90.8695L79.0323 83.77L79.0319 83.7711L60.4873 90.8708C59.6867 91.8073 58.9347 93.3302 58.452 95.1535C57.5621 98.5154 57.9251 101.625 59.2627 102.099C59.3777 102.14 59.4961 102.16 59.617 102.16C59.1622 102.992 58.7584 104.009 58.4586 105.142C57.5687 108.504 57.9317 111.613 59.2693 112.087C59.3857 112.129 59.5055 112.149 59.628 112.148C59.1727 112.981 58.7686 113.998 58.4685 115.132C58.1756 116.239 58.0184 117.318 57.9871 118.285C57.543 119.108 57.149 120.107 56.8548 121.217C55.5175 120.747 53.7136 123.087 52.8243 126.446L52.8241 126.447L52.8213 126.446C51.4837 125.972 49.6779 128.313 48.788 131.675C48.3069 133.492 48.192 135.236 48.3993 136.53C47.6007 137.467 46.8511 138.987 46.3696 140.806C45.5659 143.842 45.784 146.672 46.819 147.541C46.3604 148.377 45.9531 149.4 45.6513 150.54C45.0437 152.835 45.0201 155.013 45.492 156.315C44.8853 157.239 44.3379 158.489 43.9577 159.925C43.0678 163.287 43.4307 166.396 44.7684 166.871C46.106 167.345 47.9118 165.004 48.8016 161.642C49.4092 159.347 49.4328 157.169 48.9609 155.867C49.5676 154.944 50.115 153.694 50.4952 152.257C51.2989 149.221 51.0807 146.391 50.0458 145.522C50.5044 144.686 50.9117 143.663 51.2135 142.523C51.6946 140.705 51.8095 138.962 51.6023 137.668C52.4008 136.731 53.1505 135.211 53.632 133.392L53.6322 133.391L53.635 133.392C54.9722 133.866 56.7773 131.527 57.6675 128.166C59.0048 128.636 60.8087 126.296 61.698 122.937C61.9909 121.83 62.1481 120.751 62.1794 119.784C62.6239 118.96 63.0183 117.961 63.3125 116.849C64.2024 113.487 63.8394 110.377 62.5018 109.903C62.3855 109.862 62.2656 109.842 62.1431 109.842C62.5984 109.01 63.0026 107.992 63.3026 106.859C64.1925 103.497 63.8295 100.387 62.4919 99.9131C62.377 99.8724 62.2586 99.8524 62.1376 99.8521C62.5924 99.0199 62.9962 98.0031 63.296 96.8704C63.7763 95.0561 63.8916 93.3152 63.6858 92.0224C64.0088 91.6445 64.324 91.1711 64.6167 90.6211C67.1434 90.487 69.7433 90.3912 72.3974 90.3912C74.2645 90.3912 76.1049 90.4386 77.9117 90.5134C77.919 90.5675 77.9269 90.6209 77.9353 90.6735C77.1346 91.61 76.3826 93.133 75.9 94.9563C75.0101 98.3181 75.373 101.428 76.7107 101.902C76.8256 101.943 76.944 101.963 77.065 101.963C76.6102 102.795 76.2064 103.812 75.9066 104.945C75.0167 108.306 75.3796 111.416 76.7173 111.89C76.8336 111.931 76.9534 111.951 77.0759 111.951C76.6207 112.784 76.2165 113.801 75.9164 114.935C75.6235 116.041 75.4663 117.121 75.435 118.088C74.9909 118.91 74.5969 119.909 74.3027 121.02C72.9654 120.55 71.1615 122.89 70.2722 126.249L70.272 126.25L70.2692 126.249C68.9316 125.775 67.1258 128.116 66.236 131.478C65.7549 133.295 65.64 135.039 65.8472 136.332C65.0487 137.269 64.299 138.79 63.8175 140.609C63.0139 143.645 63.232 146.475 64.267 147.344C63.8083 148.18 63.4011 149.203 63.0992 150.343C62.4916 152.638 62.4681 154.816 62.9399 156.118C62.3333 157.041 61.7858 158.291 61.4056 159.728C60.5157 163.09 60.8787 166.199 62.2163 166.673C63.5539 167.147 65.3597 164.806 66.2496 161.445C66.8571 159.149 66.8807 156.972 66.4088 155.67C67.0155 154.746 67.5629 153.496 67.9432 152.06C68.7468 149.024 68.5287 146.194 67.4937 145.324C67.9523 144.489 68.3596 143.466 68.6615 142.326C69.1425 140.508 69.2575 138.764 69.0502 137.471C69.8488 136.534 70.5984 135.014 71.0799 133.195L71.0802 133.194L71.0829 133.195C72.4202 133.669 74.2252 131.329 75.1154 127.969C76.4528 128.439 78.2566 126.099 79.1459 122.74C79.4388 121.633 79.596 120.554 79.6274 119.587C80.0718 118.763 80.4662 117.763 80.7604 116.652C81.6503 113.29 81.2873 110.18 79.9497 109.706C79.8334 109.665 79.7135 109.645 79.5911 109.645C80.0463 108.812 80.4505 107.795 80.7505 106.661C81.6404 103.3 81.2775 100.19 79.9398 99.7159C79.8249 99.6751 79.7065 99.6552 79.5855 99.6549C80.0404 98.8226 80.4441 97.8058 80.7439 96.6732C81.2242 94.8588 81.3396 93.1179 81.1337 91.8251C81.3975 91.5165 81.6561 91.1442 81.9015 90.7185C83.2475 90.7988 84.5709 90.8864 85.8686 90.9723H85.8688H85.8689C88.2244 91.1283 90.4952 91.2786 92.6634 91.3692C92.2338 94.6281 92.8958 97.4145 94.2085 97.6991C94.3267 97.7248 94.4464 97.7293 94.5668 97.7139C94.1954 98.5996 93.8925 99.6618 93.704 100.826C93.1444 104.282 93.8055 107.325 95.1805 107.623C95.3007 107.649 95.4225 107.653 95.5449 107.637C95.1722 108.524 94.8683 109.589 94.6793 110.755C94.4956 111.89 94.4434 112.98 94.5049 113.943C94.1422 114.82 93.8464 115.865 93.6612 117.009L93.661 117.01C92.2863 116.713 90.7186 119.272 90.1589 122.727C88.7847 122.434 87.2186 124.992 86.6595 128.445C86.3571 130.312 86.4111 132.059 86.7415 133.317C86.0383 134.352 85.4401 135.959 85.1372 137.83C84.6325 140.947 85.1208 143.728 86.2304 144.462C85.8546 145.353 85.5481 146.423 85.358 147.597C84.9753 149.96 85.1634 152.13 85.7601 153.362C85.2478 154.357 84.8256 155.668 84.587 157.142C84.0274 160.598 84.6884 163.641 86.0634 163.939C87.4385 164.237 89.0068 161.678 89.5664 158.222C89.9491 155.859 89.761 153.689 89.1643 152.457C89.6766 151.462 90.0988 150.151 90.3374 148.677C90.8422 145.56 90.3538 142.778 89.2442 142.044C89.62 141.154 89.9266 140.083 90.1167 138.909C90.419 137.042 90.365 135.295 90.0346 134.037C90.7376 133.003 91.3358 131.396 91.6387 129.526C93.0129 129.819 94.579 127.261 95.1381 123.808L95.1383 123.807C96.5132 124.104 98.0811 121.544 98.6406 118.089C98.8244 116.954 98.8765 115.864 98.815 114.901C99.1777 114.025 99.4735 112.979 99.6588 111.835C100.218 108.379 99.5573 105.336 98.1823 105.038C98.062 105.012 97.9403 105.008 97.8179 105.024C98.1906 104.137 98.4945 103.072 98.6835 101.905C99.2431 98.4496 98.582 95.4063 97.207 95.1082C97.0887 95.0826 96.9691 95.0781 96.8487 95.0934C97.2201 94.2078 97.523 93.1455 97.7115 91.9816C97.7408 91.8004 97.7668 91.6204 97.7895 91.4418ZM102.938 74.6188L116.997 69.2362L102.938 74.6185C102.938 74.6186 102.938 74.6187 102.938 74.6188ZM95.5948 77.43C95.595 77.4298 95.5951 77.4296 95.5952 77.4294L87.5674 80.5026L87.5673 80.5033L95.5948 77.43Z" fill="url(#paint0_linear_133_830)" shape-rendering="crispEdges"/>
</g>
<defs>
<filter id="filter0_d_133_830" x="0" y="0" width="137" height="217" filterUnits="userSpaceOnUse" color-interpolation-filters="sRGB">
<feFlood flood-opacity="0" result="BackgroundImageFix"/>
<feColorMatrix in="SourceAlpha" type="matrix" values="0 0 0 0 0 0 0 0 0 0 0 0 0 0 0 0 0 0 127 0" result="hardAlpha"/>
<feOffset dy="4"/>
<feGaussianBlur stdDeviation="10"/>
<feComposite in2="hardAlpha" operator="out"/>
<feColorMatrix type="matrix" values="0 0 0 0 0.85098 0 0 0 0 0.85098 0 0 0 0 0.85098 0 0 0 1 0"/>
<feBlend mode="normal" in2="BackgroundImageFix" result="effect1_dropShadow_133_830"/>
<feBlend mode="normal" in="SourceGraphic" in2="effect1_dropShadow_133_830" result="shape"/>
</filter>
<linearGradient id="paint0_linear_133_830" x1="101.258" y1="70.0842" x2="81.1377" y2="162.877" gradientUnits="userSpaceOnUse">
<stop stop-color="#D9D9D9"/>
<stop offset="1" stop-color="#D9D9D9" stop-opacity="0.2"/>
</linearGradient>
</defs>
</svg>
