<svg width="111" height="142" viewBox="0 0 111 142" fill="none" xmlns="http://www.w3.org/2000/svg">
<g filter="url(#filter0_d_133_768)">
<path fill-rule="evenodd" clip-rule="evenodd" d="M76.9419 59.4747C85.438 59.3268 91.0015 57.1317 91.0015 46.6783C91.0015 29.7352 76.3859 16 58.3566 16C40.3273 16 25.7116 29.7352 25.7116 46.6783C25.7116 55.8181 29.9647 58.6447 36.7124 59.3096C36.4871 60.2576 36.41 61.1271 36.4756 61.8106C35.8284 62.5355 35.1879 63.683 34.7337 65.034C33.8949 67.5288 34.0086 69.7728 34.9877 70.046C35.072 70.0695 35.1599 70.0777 35.2508 70.0713C34.8671 70.7016 34.5123 71.4636 34.2297 72.3043C33.3909 74.7991 33.5046 77.0431 34.4837 77.3163C34.5682 77.3399 34.6565 77.348 34.7477 77.3416C34.3637 77.9722 34.0086 78.7347 33.7256 79.5762C33.4498 80.3967 33.277 81.19 33.204 81.895C32.8288 82.5182 32.4821 83.2671 32.2047 84.0918C31.2257 83.8221 29.7538 85.6219 28.9156 88.1146L28.9154 88.1145C27.9363 87.8413 26.4626 89.6423 25.6238 92.1371C25.1703 93.4861 24.9952 94.7618 25.0849 95.6922C24.4385 96.4172 23.7991 97.5636 23.3454 98.9129C22.5887 101.164 22.6072 103.21 23.337 103.79C22.9503 104.423 22.5925 105.189 22.3078 106.036C21.7343 107.742 21.6061 109.33 21.8952 110.252C21.3935 110.956 20.9198 111.895 20.5617 112.96C19.7229 115.455 19.8366 117.699 20.8157 117.972C21.7948 118.245 23.2684 116.444 24.1072 113.949C24.6807 112.244 24.809 110.655 24.5199 109.734C25.0215 109.029 25.4953 108.091 25.8534 107.026C26.6101 104.775 26.5916 102.728 25.8617 102.149C26.2485 101.516 26.6063 100.749 26.891 99.9023C27.3446 98.5533 27.5196 97.2776 27.43 96.3472C28.0763 95.6223 28.7156 94.4761 29.1693 93.1269L29.1695 93.127C30.1485 93.4002 31.622 91.5995 32.4609 89.1049C33.44 89.3747 34.912 87.5746 35.7501 85.0817C36.026 84.2613 36.1988 83.4679 36.2717 82.7629C36.6471 82.1396 36.9939 81.3905 37.2712 80.5656C38.11 78.0708 37.9963 75.8268 37.0172 75.5536C36.9326 75.53 36.8444 75.5219 36.7532 75.5284C37.1372 74.8977 37.4923 74.1352 37.7753 73.2937C38.6141 70.7989 38.5003 68.555 37.5212 68.2818C37.437 68.2582 37.3491 68.2501 37.2582 68.2564C37.6418 67.6261 37.9966 66.8642 38.2793 66.0234C38.7326 64.6752 38.9077 63.4003 38.8184 62.47C39.4276 61.7877 40.0308 60.7309 40.4784 59.4823C42.9398 59.4937 45.6324 59.3534 48.4959 59.2041L48.5019 59.2038L48.5133 59.2032C48.8852 59.1838 49.2599 59.1643 49.6374 59.1449L63.209 55.0546L63.2072 55.0579L49.6381 59.1487C49.0531 59.6886 48.5037 60.5652 48.151 61.6143C47.4996 63.5517 47.7653 65.3436 48.7444 65.6169C48.8282 65.6402 48.9145 65.6517 49.0027 65.652C48.6698 66.1316 48.3743 66.7175 48.1549 67.3702C47.5035 69.3075 47.7692 71.0995 48.7483 71.3727C48.8337 71.3966 48.9218 71.4081 49.0119 71.4079C48.6784 71.8878 48.3823 72.4745 48.1626 73.1281C47.9486 73.7645 47.8336 74.3852 47.8103 74.9415C47.4845 75.4163 47.1955 75.993 46.9798 76.6343C46.001 76.3639 44.681 77.7121 44.0302 79.6476L44.03 79.6476C43.0509 79.3744 41.7292 80.7234 41.0778 82.6607C40.7256 83.7084 40.6415 84.7135 40.7935 85.459C40.2092 85.999 39.6609 86.8747 39.3086 87.9225C38.7209 89.6703 38.8797 91.2999 39.6353 91.8026C39.2995 92.2841 39.0012 92.8738 38.7801 93.5313C38.335 94.8551 38.3181 96.1111 38.6644 96.8609C38.2206 97.3932 37.8201 98.1133 37.5419 98.9408C36.8905 100.878 37.1562 102.67 38.1353 102.943C39.1144 103.216 40.4361 101.867 41.0875 99.9302C41.5326 98.6064 41.5495 97.3504 41.2031 96.6005C41.647 96.0683 42.0475 95.3482 42.3257 94.5207C42.9133 92.7729 42.7546 91.1434 41.9989 90.6407C42.3348 90.1592 42.6331 89.5694 42.8542 88.9119C43.2064 87.8643 43.2905 86.8591 43.1385 86.1136C43.7227 85.5737 44.271 84.6981 44.6233 83.6505L44.6234 83.6505C45.6024 83.9237 46.924 82.575 47.5754 80.638C48.5543 80.9084 49.8744 79.56 50.5252 77.6242C50.7392 76.9879 50.8542 76.3672 50.8775 75.8108C51.2033 75.3359 51.4925 74.759 51.7081 74.1175C52.3595 72.1802 52.0938 70.3882 51.1147 70.115C51.0293 70.0912 50.9412 70.0797 50.8511 70.0799C51.1846 69.5999 51.4807 69.0132 51.7004 68.3596C52.3518 66.4223 52.0861 64.6303 51.107 64.3571C51.0232 64.3337 50.9369 64.3222 50.8487 64.3219C51.1816 63.8423 51.4771 63.2564 51.6966 62.6038C52.0486 61.5568 52.1328 60.5523 51.9813 59.807C52.2168 59.5896 52.4466 59.3176 52.6601 59.0018C54.5099 58.9245 56.4134 58.8693 58.3565 58.8693C59.7219 58.8693 61.0678 58.8965 62.3892 58.9395C62.3947 58.9718 62.4007 59.0037 62.4071 59.035C61.822 59.5749 61.2727 60.4515 60.9199 61.5007C60.2686 63.438 60.5342 65.2299 61.5133 65.5032C61.5971 65.5266 61.6835 65.5381 61.7716 65.5383C61.4388 66.0179 61.1432 66.6038 60.9238 67.2565C60.2724 69.1938 60.5381 70.9858 61.5172 71.259C61.6027 71.2829 61.6908 71.2944 61.7808 71.2942C61.4473 71.7742 61.1513 72.3608 60.9315 73.0144C60.7175 73.6508 60.6025 74.2715 60.5793 74.8278C60.2535 75.3026 59.9644 75.8793 59.7488 76.5206C58.77 76.2502 57.45 77.5984 56.7991 79.5339L56.7989 79.5339C55.8199 79.2607 54.4981 80.6097 53.8468 82.547C53.4945 83.5947 53.4105 84.5998 53.5624 85.3453C52.9782 85.8853 52.4298 86.761 52.0775 87.8088C51.4899 89.5566 51.6486 91.1862 52.4043 91.6889C52.0684 92.1704 51.7701 92.7601 51.5491 93.4176C51.104 94.7414 51.0871 95.9974 51.4334 96.7472C50.9895 97.2795 50.589 97.9996 50.3108 98.827C49.6595 100.764 49.9251 102.556 50.9042 102.83C51.8833 103.103 53.2051 101.754 53.8564 99.8165C54.3015 98.4927 54.3184 97.2367 53.9721 96.4868C54.4159 95.9546 54.8164 95.2345 55.0946 94.407C55.6823 92.6592 55.5235 91.0297 54.7679 90.527C55.1038 90.0455 55.402 89.4557 55.6231 88.7982C55.9753 87.7506 56.0594 86.7454 55.9075 85.9999C56.4916 85.46 57.0399 84.5844 57.3922 83.5368L57.3924 83.5368C58.3713 83.81 59.6929 82.4613 60.3443 80.5243C61.3232 80.7947 62.6433 79.4463 63.2941 77.5105C63.5081 76.8742 63.6231 76.2535 63.6464 75.6971C63.9723 75.2222 64.2614 74.6453 64.4771 74.0038C65.1284 72.0665 64.8628 70.2745 63.8837 70.0013C63.7982 69.9775 63.7101 69.966 63.6201 69.9662C63.9535 69.4862 64.2496 68.8995 64.4694 68.2459C65.1207 66.3086 64.855 64.5166 63.876 64.2434C63.7922 64.22 63.7058 64.2085 63.6176 64.2082C63.9505 63.7286 64.2461 63.1427 64.4655 62.4901C64.8175 61.4431 64.9017 60.4386 64.7502 59.6933C64.9425 59.5159 65.1309 59.302 65.3098 59.0577C66.2962 59.104 67.266 59.1545 68.2169 59.2041L68.2171 59.2041C69.941 59.294 71.603 59.3806 73.1898 59.4328C72.8749 61.3115 73.3594 62.9182 74.3205 63.0822C74.407 63.097 74.4945 63.0996 74.5826 63.0908C74.3106 63.6012 74.0888 64.2135 73.9508 64.8844C73.5412 66.8759 74.0251 68.6296 75.0316 68.8015C75.1189 68.8164 75.2073 68.8189 75.2961 68.8097C75.0236 69.3207 74.8014 69.9338 74.6632 70.6058C74.5285 71.2604 74.4904 71.8894 74.5357 72.4449C74.2706 72.9496 74.0544 73.5515 73.9189 74.21C72.9127 74.0396 71.7655 75.5144 71.3561 77.505L71.356 77.5054C70.3496 77.3339 69.2018 78.8089 68.7922 80.8003C68.5708 81.8767 68.6105 82.8836 68.8525 83.6088C68.338 84.2049 67.9003 85.1312 67.6787 86.2087C67.3091 88.0056 67.667 89.609 68.4798 90.0313C68.2051 90.544 67.981 91.1604 67.842 91.8363C67.5619 93.1983 67.6997 94.449 68.1367 95.1586C67.7615 95.7325 67.4523 96.4882 67.2776 97.3378C66.868 99.3293 67.3518 101.083 68.3583 101.255C69.3647 101.427 70.5127 99.9515 70.9223 97.96C71.2024 96.598 71.0647 95.3473 70.6277 94.6377C71.0029 94.0638 71.312 93.3081 71.4868 92.4585C71.8564 90.6615 71.4985 89.0582 70.6857 88.6358C70.9604 88.1231 71.1845 87.5067 71.3235 86.8308C71.5449 85.7544 71.5052 84.7475 71.2632 84.0223C71.7777 83.4262 72.2154 82.4999 72.437 81.4225L72.4371 81.4221C73.4433 81.5936 74.591 80.119 75.0007 78.128C76.0068 78.2984 77.154 76.8237 77.5634 74.833C77.6981 74.1783 77.7362 73.5493 77.6909 72.9938C77.9561 72.489 78.1724 71.8867 78.3079 71.2279C78.7175 69.2364 78.2337 67.4827 77.2272 67.3109C77.1399 67.296 77.0515 67.2935 76.9626 67.3027C77.2351 66.7917 77.4574 66.1786 77.5956 65.5066C78.0052 63.5151 77.5213 61.7614 76.5149 61.5896C76.4284 61.5748 76.3408 61.5722 76.2528 61.5811C76.5248 61.0706 76.7466 60.4583 76.8845 59.7874C76.9061 59.6824 76.9252 59.5781 76.9419 59.4747ZM80.7083 49.7816L91.0015 46.6783L80.7083 49.7805C80.7083 49.7809 80.7083 49.7812 80.7083 49.7816ZM75.3336 51.4019C75.3341 51.4013 75.3346 51.4006 75.3351 51.4L69.4568 53.1716L69.4564 53.1738L75.3336 51.4019Z" fill="url(#paint0_linear_133_768)" shape-rendering="crispEdges"/>
</g>
<defs>
<filter id="filter0_d_133_768" x="0" y="0" width="111" height="142" filterUnits="userSpaceOnUse" color-interpolation-filters="sRGB">
<feFlood flood-opacity="0" result="BackgroundImageFix"/>
<feColorMatrix in="SourceAlpha" type="matrix" values="0 0 0 0 0 0 0 0 0 0 0 0 0 0 0 0 0 0 127 0" result="hardAlpha"/>
<feOffset dy="4"/>
<feGaussianBlur stdDeviation="10"/>
<feComposite in2="hardAlpha" operator="out"/>
<feColorMatrix type="matrix" values="0 0 0 0 0.85098 0 0 0 0 0.85098 0 0 0 0 0.85098 0 0 0 1 0"/>
<feBlend mode="normal" in2="BackgroundImageFix" result="effect1_dropShadow_133_768"/>
<feBlend mode="normal" in="SourceGraphic" in2="effect1_dropShadow_133_768" result="shape"/>
</filter>
<linearGradient id="paint0_linear_133_768" x1="79.4809" y1="47.1667" x2="70.1943" y2="101.569" gradientUnits="userSpaceOnUse">
<stop stop-color="#D9D9D9"/>
<stop offset="1" stop-color="#D9D9D9" stop-opacity="0.2"/>
</linearGradient>
</defs>
</svg>
