<svg width="93" height="116" viewBox="0 0 93 116" fill="none" xmlns="http://www.w3.org/2000/svg">
<g filter="url(#filter0_d_133_644)">
<path fill-rule="evenodd" clip-rule="evenodd" d="M62.5037 48.3931C68.8459 48.2829 72.9988 46.6473 72.9988 38.8585C72.9988 26.2341 62.0884 16 48.6298 16C35.1711 16 24.2607 26.2341 24.2607 38.8585C24.2607 45.6699 27.4367 47.7755 32.4755 48.2704C32.3077 48.9756 32.2501 49.6224 32.2988 50.1312C31.8152 50.6712 31.3366 51.5269 30.9972 52.5344C30.371 54.3933 30.4559 56.0653 31.1868 56.2689C31.25 56.2864 31.3159 56.2925 31.384 56.2877C31.0975 56.7574 30.8325 57.3253 30.6214 57.952C29.9953 59.8109 30.0802 61.4829 30.8111 61.6865C30.8742 61.7041 30.9401 61.7101 31.0083 61.7053C30.7218 62.175 30.4568 62.743 30.2457 63.3697C30.0396 63.9815 29.9105 64.5732 29.8562 65.0988C29.5763 65.563 29.3178 66.1206 29.1109 66.7347C28.3801 66.5333 27.2811 67.8745 26.6553 69.732L26.6548 69.7318C25.9239 69.5282 24.8238 70.8702 24.1976 72.729C23.859 73.7343 23.7284 74.685 23.7953 75.3782C23.313 75.9185 22.8358 76.7724 22.4973 77.7775C21.9323 79.4549 21.9462 80.98 22.4913 81.4115C22.2025 81.8831 21.9354 82.4546 21.7228 83.0855C21.2948 84.3563 21.199 85.5396 21.4147 86.2263C21.0403 86.7514 20.6866 87.4508 20.4193 88.2444C19.7931 90.1033 19.878 91.7752 20.6089 91.9788C21.3398 92.1824 22.4399 90.8405 23.066 88.9816C23.494 87.7109 23.5898 86.5275 23.3741 85.8408C23.7486 85.3157 24.1022 84.6163 24.3696 83.8228C24.9346 82.1454 24.9206 80.6202 24.3755 80.1888C24.6643 79.7171 24.9315 79.1457 25.144 78.5147C25.4826 77.5094 25.6133 76.5588 25.5463 75.8655C26.0287 75.3254 26.5057 74.4715 26.8443 73.4666L26.8448 73.4667C27.5757 73.6703 28.6758 72.3285 29.3019 70.4696C30.0328 70.671 31.1319 69.3297 31.7576 67.472C31.9637 66.8601 32.0928 66.2685 32.1471 65.7428C32.427 65.2786 32.6856 64.721 32.8925 64.1069C33.5186 62.248 33.4337 60.576 32.7028 60.3724C32.6397 60.3548 32.5737 60.3488 32.5056 60.3536C32.7921 59.8839 33.0571 59.3159 33.2682 58.6892C33.8943 56.8303 33.8094 55.1584 33.0786 54.9548C33.0154 54.9372 32.9495 54.9312 32.8813 54.936C33.1679 54.4662 33.4328 53.8983 33.6439 53.2716C33.982 52.2679 34.1128 51.3186 34.0465 50.6256C34.5016 50.1174 34.9523 49.3297 35.2867 48.3988C37.1233 48.4072 39.1324 48.3027 41.2688 48.1915H41.2689C41.5515 48.1768 41.8363 48.162 42.1233 48.1473L52.2534 45.0997L52.2526 45.1012L42.1236 48.149C41.6869 48.5513 41.2768 49.2045 41.0135 49.9862C40.5272 51.4297 40.7256 52.7649 41.4564 52.9685C41.5188 52.9858 41.583 52.9944 41.6486 52.9947C41.4 53.3521 41.1793 53.7888 41.0154 54.2754C40.5292 55.7189 40.7275 57.0541 41.4584 57.2576C41.5221 57.2754 41.5878 57.284 41.6549 57.2838C41.4061 57.6414 41.1851 58.0784 41.0211 58.5653C40.8612 59.0402 40.7753 59.5034 40.7581 59.9184C40.5154 60.2718 40.3001 60.701 40.1394 61.178C39.4087 60.9757 38.4229 61.9804 37.9368 63.423L37.936 63.4227C37.2051 63.2192 36.2184 64.2243 35.7322 65.6678C35.4692 66.4485 35.4065 67.1975 35.5199 67.7529C35.0838 68.1553 34.6744 68.8078 34.4114 69.5886C33.9725 70.8916 34.0914 72.1063 34.6562 72.4802C34.4057 72.8389 34.1833 73.2779 34.0184 73.7674C33.686 74.7542 33.6735 75.6903 33.9324 76.249C33.601 76.6455 33.3021 77.1821 33.0944 77.7986C32.6082 79.2421 32.8065 80.5773 33.5374 80.7809C34.2683 80.9845 35.2549 79.9793 35.7412 78.5358C36.0735 77.5491 36.086 76.6129 35.8272 76.0543C36.1585 75.6577 36.4575 75.1211 36.6651 74.5046C37.104 73.2017 36.9852 71.9869 36.4203 71.613C36.6708 71.2544 36.8932 70.8153 37.0581 70.3258C37.3211 69.5452 37.3838 68.7962 37.2704 68.2407C37.7065 67.8384 38.1158 67.186 38.3788 66.4054L38.3797 66.4057C39.1105 66.6092 40.0971 65.6041 40.5834 64.1607C41.3142 64.363 42.3001 63.3581 42.7861 61.9153C42.946 61.4405 43.0319 60.9773 43.0491 60.5623C43.2918 60.2088 43.5072 59.7796 43.6679 59.3025C44.1541 57.859 43.9558 56.5238 43.2249 56.3202C43.1612 56.3025 43.0955 56.2939 43.0283 56.294C43.2772 55.9365 43.4981 55.4994 43.6621 55.0126C44.1483 53.5691 43.95 52.2339 43.2192 52.0303C43.1568 52.0129 43.0926 52.0043 43.027 52.0041C43.2756 51.6467 43.4963 51.2099 43.6602 50.7234C43.9229 49.9434 43.9858 49.1951 43.8728 48.6398C44.0484 48.478 44.2197 48.2756 44.3789 48.0407C45.7593 47.9831 47.1797 47.942 48.6297 47.942C49.6495 47.942 50.6547 47.9624 51.6416 47.9944C51.6457 48.0183 51.6501 48.0419 51.6548 48.0651C51.2181 48.4674 50.808 49.1206 50.5447 49.9023C50.0584 51.3458 50.2568 52.681 50.9876 52.8846C51.05 52.902 51.1142 52.9105 51.1798 52.9108C50.9312 53.2682 50.7105 53.7049 50.5466 54.1915C50.0604 55.635 50.2587 56.9702 50.9896 57.1738C51.0533 57.1915 51.119 57.2001 51.1861 57.2C50.9373 57.5575 50.7163 57.9945 50.5523 58.4814C50.3924 58.9563 50.3065 59.4195 50.2893 59.8345C50.0466 60.188 49.8313 60.6171 49.6706 61.0941C48.9399 60.8919 47.9541 61.8965 47.468 63.3391L47.4672 63.3389C46.7363 63.1353 45.7496 64.1404 45.2634 65.5839C45.0004 66.3646 44.9377 67.1136 45.0511 67.6691C44.615 68.0714 44.2056 68.724 43.9426 69.5047C43.5037 70.8077 43.6226 72.0225 44.1874 72.3963C43.9369 72.755 43.7145 73.1941 43.5496 73.6836C43.2172 74.6703 43.2047 75.6064 43.4636 76.1651C43.1322 76.5617 42.8333 77.0982 42.6256 77.7147C42.1394 79.1582 42.3377 80.4934 43.0686 80.697C43.7995 80.9006 44.7861 79.8954 45.2724 78.4519C45.6047 77.4652 45.6172 76.529 45.3584 75.9704C45.6897 75.5738 45.9887 75.0373 46.1963 74.4208C46.6352 73.1178 46.5164 71.903 45.9515 71.5292C46.202 71.1705 46.4244 70.7314 46.5893 70.2419C46.8523 69.4613 46.915 68.7123 46.8016 68.1568C47.2377 67.7545 47.647 67.1021 47.91 66.3215L47.9109 66.3218C48.6417 66.5253 49.6283 65.5203 50.1146 64.0768C50.8454 64.2791 51.8313 63.2742 52.3173 61.8315C52.4772 61.3566 52.5631 60.8934 52.5803 60.4784C52.823 60.1249 53.0384 59.6957 53.1991 59.2186C53.6853 57.7751 53.487 56.4399 52.7561 56.2363C52.6924 56.2186 52.6267 56.21 52.5595 56.2102C52.8084 55.8526 53.0293 55.4156 53.1933 54.9287C53.6796 53.4852 53.4812 52.15 52.7504 51.9464C52.688 51.929 52.6238 51.9205 52.5582 51.9202C52.8068 51.5628 53.0275 51.126 53.1914 50.6395C53.4541 49.8595 53.517 49.1112 53.404 48.5559C53.5475 48.4237 53.6881 48.2645 53.8215 48.0825C54.5575 48.117 55.281 48.1546 55.9905 48.1915H55.9905H55.9905C57.2775 48.2585 58.5182 48.323 59.7028 48.3619C59.4673 49.7623 59.829 50.9601 60.5467 51.0824C60.6113 51.0934 60.6766 51.0953 60.7424 51.0887C60.5394 51.469 60.3739 51.9252 60.2709 52.425C59.9652 53.9089 60.3264 55.2155 61.0777 55.3436C61.1426 55.3546 61.2082 55.3565 61.2743 55.3498C61.0709 55.7305 60.9051 56.1872 60.8019 56.6877C60.7014 57.1756 60.673 57.6443 60.7068 58.0583C60.5088 58.4343 60.3474 58.8829 60.2462 59.3736C59.495 59.2464 58.6386 60.3452 58.3329 61.8286C57.5818 61.7016 56.7254 62.8004 56.4197 64.2837C56.2545 65.0854 56.284 65.8353 56.4645 66.3756C56.0802 66.8198 55.7532 67.5102 55.5877 68.3133C55.3117 69.6528 55.5792 70.848 56.1865 71.162C55.9815 71.544 55.8142 72.0033 55.7104 72.5069C55.5014 73.5214 55.6041 74.4531 55.9301 74.9819C55.6499 75.4095 55.4192 75.9726 55.2887 76.6057C54.9829 78.0896 55.3441 79.3963 56.0954 79.5243C56.8468 79.6523 57.7037 78.5532 58.0094 77.0693C58.2185 76.0548 58.1158 75.1231 57.7898 74.5943C58.0699 74.1667 58.3007 73.6036 58.4312 72.9705C58.7072 71.631 58.4397 70.4359 57.8324 70.1219C58.0375 69.7398 58.2047 69.2805 58.3085 68.7769C58.4737 67.9753 58.4442 67.2254 58.2637 66.6851C58.648 66.2409 58.975 65.5505 59.1405 64.7474C59.8914 64.8744 60.7477 63.776 61.0534 62.2931C61.8046 62.4203 62.6611 61.3214 62.9668 59.838C63.0673 59.3501 63.0957 58.8814 63.0619 58.4675C63.26 58.0912 63.4215 57.6423 63.5227 57.1513C63.8285 55.6675 63.4673 54.3608 62.7159 54.2327C62.6511 54.2217 62.5854 54.2198 62.5193 54.2265C62.7227 53.8458 62.8885 53.3891 62.9917 52.8886C63.2974 51.4047 62.9363 50.098 62.1849 49.97C62.1203 49.959 62.055 49.9571 61.9892 49.9637C62.1922 49.5833 62.3577 49.1272 62.4607 48.6274C62.4769 48.5487 62.4912 48.4706 62.5037 48.3931ZM65.3142 41.1709L72.9988 38.8585L65.3142 41.1704C65.3142 41.1706 65.3142 41.1707 65.3142 41.1709ZM61.3039 42.3776C61.3041 42.3773 61.3043 42.377 61.3045 42.3767L56.9162 43.6969L56.916 43.6979L61.3039 42.3776Z" fill="url(#paint0_linear_133_644)" shape-rendering="crispEdges"/>
</g>
<defs>
<filter id="filter0_d_133_644" x="0" y="0" width="93" height="116" filterUnits="userSpaceOnUse" color-interpolation-filters="sRGB">
<feFlood flood-opacity="0" result="BackgroundImageFix"/>
<feColorMatrix in="SourceAlpha" type="matrix" values="0 0 0 0 0 0 0 0 0 0 0 0 0 0 0 0 0 0 127 0" result="hardAlpha"/>
<feOffset dy="4"/>
<feGaussianBlur stdDeviation="10"/>
<feComposite in2="hardAlpha" operator="out"/>
<feColorMatrix type="matrix" values="0 0 0 0 0.85098 0 0 0 0 0.85098 0 0 0 0 0.85098 0 0 0 1 0"/>
<feBlend mode="normal" in2="BackgroundImageFix" result="effect1_dropShadow_133_644"/>
<feBlend mode="normal" in="SourceGraphic" in2="effect1_dropShadow_133_644" result="shape"/>
</filter>
<linearGradient id="paint0_linear_133_644" x1="64.3993" y1="39.2221" x2="57.4918" y2="79.761" gradientUnits="userSpaceOnUse">
<stop stop-color="#D9D9D9"/>
<stop offset="1" stop-color="#D9D9D9" stop-opacity="0.2"/>
</linearGradient>
</defs>
</svg>
