<svg width="42" height="42" viewBox="0 0 42 42" fill="none" xmlns="http://www.w3.org/2000/svg">
    <path d="M21.9627 37.9328H3.19776C2.53626 37.9328 2 37.3966 2 36.7351V3.19776C2 2.53626 2.53626 2 3.19776 2H36.7351C37.3966 2 37.9328 2.53626 37.9328 3.19776V21.9627" stroke="#1E6275" stroke-width="3" stroke-linecap="round" stroke-linejoin="round"/>
    <path d="M2 27.9515L15.9739 21.9626L26.9534 26.9533" stroke="#1E6275" stroke-width="3" stroke-linecap="round" stroke-linejoin="round"/>
    <path d="M27.9515 15.9738C25.7464 15.9738 23.959 14.1863 23.959 11.9813C23.959 9.77629 25.7464 7.98877 27.9515 7.98877C30.1566 7.98877 31.944 9.77629 31.944 11.9813C31.944 14.1863 30.1566 15.9738 27.9515 15.9738Z" stroke="#1E6275" stroke-width="3" stroke-linecap="round" stroke-linejoin="round"/>
    <path d="M27.9515 33.9402H33.9403M33.9403 33.9402H39.9291M33.9403 33.9402V27.9514M33.9403 33.9402V39.929" stroke="#1E6275" stroke-width="3" stroke-linecap="round" stroke-linejoin="round"/>
</svg>