<svg width="40" height="45" viewBox="0 0 40 45" fill="none" xmlns="http://www.w3.org/2000/svg">
    <path d="M17.3436 25.5927C21.4856 28.407 28.2683 27.3858 31.4601 22.6883C31.8381 22.1318 33.0844 20.2977 33.3963 19.8386C36.6044 15.117 35.4856 8.76218 30.8974 5.6447C26.9437 2.95833 21.7039 3.55234 18.2776 6.78914C17.7276 7.30854 17.2246 7.89616 16.781 8.54912" stroke="#1E6275" stroke-width="3" stroke-linecap="round" stroke-linejoin="round"/>
    <path d="M21.8615 18.9433C17.7195 16.1289 10.9368 17.1502 7.74502 21.8478C7.36699 22.4041 6.12071 24.2384 5.80886 24.6973C2.60066 29.419 3.71949 35.7738 8.30769 38.8913C12.2614 41.5776 17.5011 40.9836 20.9275 37.7468C21.4774 37.2273 21.9806 36.6398 22.4242 35.9868" stroke="#1E6275" stroke-width="3" stroke-linecap="round" stroke-linejoin="round"/>
</svg>
