<svg width="256" height="421" viewBox="0 0 256 421" fill="none" xmlns="http://www.w3.org/2000/svg">
<g filter="url(#filter0_d_133_706)">
<path fill-rule="evenodd" clip-rule="evenodd" d="M192.982 178.26C218.795 177.708 235.698 169.517 235.698 130.5C235.698 67.2634 191.296 16 136.523 16C81.7497 16 37.3473 67.2634 37.3473 130.5C37.3473 164.616 50.2708 175.164 70.774 177.644C70.0894 181.182 69.8549 184.427 70.0539 186.978C68.0871 189.683 66.1409 193.967 64.7606 199.011C62.2123 208.322 62.5578 216.697 65.5322 217.717C65.7879 217.805 66.0547 217.835 66.3304 217.812C65.1649 220.164 64.0871 223.008 63.2284 226.146C60.6801 235.457 61.0256 243.832 64 244.852C64.2578 244.94 64.5268 244.97 64.8049 244.946C63.6382 247.3 62.5592 250.146 61.6997 253.286C60.8616 256.349 60.3365 259.31 60.115 261.941C58.975 264.267 57.9218 267.062 57.0793 270.14C54.1049 269.133 49.633 275.851 47.0867 285.155L47.0837 285.154C44.1092 284.134 39.6321 290.856 37.0839 300.167C35.7058 305.203 35.174 309.964 35.4466 313.437C33.4831 316.143 31.541 320.421 30.1629 325.456C27.8637 333.858 27.9202 341.496 30.138 343.659C28.9631 346.021 27.8761 348.882 27.0113 352.042C25.2692 358.408 24.8796 364.336 25.7577 367.775C24.2337 370.406 22.7943 373.909 21.7064 377.884C19.1581 387.195 19.5035 395.57 22.478 396.59C25.4525 397.61 29.9295 390.888 32.4778 381.577C34.2199 375.211 34.6096 369.283 33.7314 365.844C35.2554 363.213 36.6949 359.71 37.7828 355.735C40.082 347.334 40.0255 339.695 37.8078 337.533C38.9827 335.171 40.0696 332.309 40.9344 329.149C42.3125 324.114 42.8443 319.352 42.5717 315.879C44.5351 313.173 46.4771 308.896 47.8552 303.861L47.8582 303.862C50.8324 304.881 55.3091 298.161 57.8575 288.85C60.8319 289.857 65.304 283.139 67.8503 273.835C68.6883 270.772 69.2134 267.811 69.4349 265.18C70.5752 262.853 71.6286 260.058 72.4712 256.979C75.0195 247.668 74.674 239.293 71.6995 238.273C71.4418 238.185 71.1727 238.154 70.8946 238.179C72.0614 235.825 73.1403 232.979 73.9999 229.838C76.5481 220.527 76.2027 212.152 73.2282 211.132C72.9725 211.045 72.7057 211.014 72.43 211.038C73.5955 208.685 74.6733 205.841 75.532 202.704C76.9088 197.673 77.4409 192.915 77.17 189.443C79.0217 186.897 80.8552 182.95 82.2154 178.288C89.6912 178.33 97.8694 177.807 106.566 177.25L106.613 177.247L106.704 177.241L106.714 177.24C107.813 177.17 108.92 177.099 110.036 177.029L110.037 177.039C108.259 179.054 106.589 182.327 105.517 186.244C103.539 193.474 104.346 200.163 107.32 201.182C107.575 201.27 107.838 201.313 108.107 201.314C107.096 203.104 106.198 205.29 105.531 207.726C103.553 214.957 104.36 221.645 107.334 222.665C107.593 222.754 107.86 222.796 108.132 222.796C107.119 224.587 106.22 226.777 105.552 229.217C104.902 231.593 104.552 233.912 104.482 235.989C103.493 237.76 102.616 239.912 101.961 242.303C98.9877 241.291 94.9763 246.324 92.9986 253.549L92.9974 253.549C90.0229 252.529 86.0075 257.564 84.0287 264.795C82.9585 268.705 82.7032 272.457 83.1648 275.239C81.39 277.255 79.7241 280.523 78.6539 284.433C76.8686 290.957 77.3509 297.039 79.6466 298.915C78.6262 300.712 77.72 302.913 77.0484 305.367C75.6958 310.309 75.6449 314.998 76.698 317.797C75.3503 319.783 74.1344 322.47 73.2896 325.556C71.3107 332.787 72.1179 339.475 75.0923 340.495C78.0668 341.515 82.0822 336.48 84.061 329.249C85.4136 324.307 85.4646 319.618 84.4115 316.819C85.7591 314.833 86.9751 312.147 87.8199 309.06C89.6052 302.536 89.1229 296.454 86.8272 294.578C87.8476 292.781 88.7538 290.58 89.4254 288.126C90.4955 284.216 90.7509 280.464 90.2893 277.682C92.0639 275.666 93.7296 272.399 94.7998 268.489L94.8011 268.489C97.7753 269.509 101.79 264.475 103.769 257.245C106.743 258.256 110.755 253.223 112.732 245.997C113.383 243.62 113.732 241.302 113.803 239.225C114.792 237.453 115.669 235.301 116.324 232.909C118.303 225.679 117.495 218.991 114.521 217.971C114.262 217.882 113.995 217.839 113.723 217.84C114.736 216.048 115.635 213.859 116.303 211.419C118.282 204.188 117.475 197.5 114.5 196.481C114.245 196.393 113.982 196.35 113.713 196.349C114.724 194.559 115.622 192.373 116.289 189.937C117.358 186.03 117.614 182.282 117.154 179.501C117.87 178.689 118.569 177.674 119.218 176.494C124.837 176.206 130.62 176 136.523 176C140.671 176 144.761 176.102 148.776 176.262C148.785 176.324 148.793 176.385 148.803 176.445C148.808 176.478 148.813 176.512 148.818 176.545C148.822 176.57 148.826 176.594 148.83 176.619C147.052 178.634 145.382 181.907 144.31 185.824C142.332 193.055 143.139 199.743 146.113 200.762C146.368 200.85 146.631 200.893 146.9 200.894C145.889 202.684 144.991 204.87 144.324 207.306C142.345 214.537 143.153 221.225 146.127 222.245C146.386 222.334 146.653 222.377 146.925 222.376C145.912 224.168 145.013 226.357 144.345 228.797C143.695 231.173 143.345 233.492 143.275 235.569C142.286 237.341 141.409 239.492 140.754 241.883C137.781 240.872 133.769 245.904 131.792 253.129L131.79 253.129C128.816 252.109 124.8 257.144 122.822 264.375C121.751 268.285 121.496 272.037 121.958 274.819C120.183 276.835 118.517 280.103 117.447 284.013C115.662 290.537 116.144 296.619 118.44 298.495C117.419 300.292 116.513 302.493 115.841 304.947C114.489 309.889 114.438 314.578 115.491 317.377C114.143 319.363 112.927 322.05 112.083 325.136C110.104 332.367 110.911 339.055 113.885 340.075C116.86 341.095 120.875 336.06 122.854 328.829C124.207 323.887 124.258 319.198 123.204 316.399C124.552 314.413 125.768 311.727 126.613 308.64C128.398 302.116 127.916 296.035 125.62 294.158C126.641 292.361 127.547 290.16 128.218 287.706C129.288 283.796 129.544 280.044 129.082 277.262C130.857 275.246 132.523 271.979 133.593 268.069L133.594 268.069C136.568 269.089 140.583 264.055 142.562 256.825C145.536 257.836 149.548 252.803 151.525 245.577C152.176 243.2 152.525 240.882 152.596 238.805C153.585 237.033 154.462 234.881 155.117 232.489C157.096 225.259 156.288 218.571 153.314 217.551C153.055 217.462 152.788 217.419 152.516 217.42C153.529 215.628 154.428 213.439 155.096 210.999C157.075 203.769 156.268 197.08 153.293 196.061C153.038 195.973 152.775 195.93 152.506 195.929C153.517 194.139 154.415 191.953 155.082 189.517C156.151 185.61 156.407 181.862 155.947 179.081C156.533 178.417 157.106 177.618 157.651 176.703C160.646 176.876 163.591 177.065 166.478 177.25H166.478H166.479H166.479H166.479C171.715 177.585 176.763 177.908 181.583 178.103C180.625 185.116 182.097 191.114 185.017 191.726C185.28 191.781 185.546 191.791 185.814 191.758C184.988 193.663 184.314 195.949 183.895 198.453C182.65 205.885 184.12 212.431 187.178 213.072C187.443 213.128 187.712 213.137 187.981 213.103C187.154 215.01 186.478 217.298 186.059 219.806C185.649 222.25 185.534 224.597 185.671 226.671C184.866 228.554 184.209 230.801 183.797 233.258C180.74 232.621 177.254 238.125 176.01 245.556L176.01 245.557C172.953 244.92 169.468 250.425 168.224 257.855C167.551 261.873 167.672 265.631 168.407 268.338C166.845 270.563 165.515 274.02 164.842 278.04C163.719 284.747 164.806 290.731 167.275 292.307C166.441 294.221 165.76 296.522 165.338 299.044C164.487 304.126 164.905 308.793 166.232 311.442C165.091 313.584 164.152 316.405 163.62 319.578C162.376 327.01 163.846 333.556 166.904 334.197C169.961 334.838 173.449 329.333 174.693 321.9C175.544 316.818 175.126 312.151 173.799 309.502C174.94 307.36 175.879 304.539 176.41 301.367C177.533 294.66 176.446 288.676 173.977 287.1C174.812 285.186 175.492 282.885 175.915 280.363C176.587 276.345 176.467 272.586 175.731 269.879C177.294 267.655 178.624 264.198 179.297 260.177L179.297 260.176C182.353 260.813 185.838 255.31 187.083 247.881C190.14 248.519 193.626 243.014 194.87 235.583C195.279 233.14 195.394 230.792 195.257 228.719C196.063 226.835 196.72 224.587 197.131 222.128C198.376 214.695 196.906 208.15 193.848 207.509C193.583 207.453 193.314 207.444 193.044 207.478C193.872 205.571 194.548 203.283 194.967 200.775C196.212 193.342 194.742 186.797 191.684 186.155C191.421 186.1 191.155 186.091 190.888 186.124C191.714 184.218 192.388 181.933 192.807 179.429C192.873 179.037 192.931 178.646 192.982 178.26Z" fill="url(#paint0_linear_133_706)" shape-rendering="crispEdges"/>
</g>
<defs>
<filter id="filter0_d_133_706" x="0" y="0" width="255.695" height="420.695" filterUnits="userSpaceOnUse" color-interpolation-filters="sRGB">
<feFlood flood-opacity="0" result="BackgroundImageFix"/>
<feColorMatrix in="SourceAlpha" type="matrix" values="0 0 0 0 0 0 0 0 0 0 0 0 0 0 0 0 0 0 127 0" result="hardAlpha"/>
<feOffset dy="4"/>
<feGaussianBlur stdDeviation="10"/>
<feComposite in2="hardAlpha" operator="out"/>
<feColorMatrix type="matrix" values="0 0 0 0 0.85098 0 0 0 0 0.85098 0 0 0 0 0.85098 0 0 0 1 0"/>
<feBlend mode="normal" in2="BackgroundImageFix" result="effect1_dropShadow_133_706"/>
<feBlend mode="normal" in="SourceGraphic" in2="effect1_dropShadow_133_706" result="shape"/>
</filter>
<linearGradient id="paint0_linear_133_706" x1="200.699" y1="132.323" x2="158.722" y2="332.481" gradientUnits="userSpaceOnUse">
<stop stop-color="#D9D9D9"/>
<stop offset="1" stop-color="#D9D9D9" stop-opacity="0.2"/>
</linearGradient>
</defs>
</svg>
